<svg width="18" height="18" viewBox="0 0 18 18" fill="none" xmlns="http://www.w3.org/2000/svg">
<g id="uim:clock-three">
<path id="Vector" d="M9 4.5C9.19891 4.5 9.38968 4.57902 9.53033 4.71967C9.67098 4.86032 9.75 5.05109 9.75 5.25V8.25H11.25C11.4489 8.25 11.6397 8.32902 11.7803 8.46967C11.921 8.61032 12 8.80109 12 9C12 9.19891 11.921 9.38968 11.7803 9.53033C11.6397 9.67098 11.4489 9.75 11.25 9.75H9C8.80109 9.75 8.61032 9.67098 8.46967 9.53033C8.32902 9.38968 8.25 9.19891 8.25 9V5.25C8.25 5.05109 8.32902 4.86032 8.46967 4.71967C8.61032 4.57902 8.80109 4.5 9 4.5Z" fill="#2D76F9"/>
<path id="Vector_2" opacity="0.5" d="M1.5 9C1.5 10.4834 1.93987 11.9334 2.76398 13.1668C3.58809 14.4001 4.75943 15.3614 6.12987 15.9291C7.50032 16.4968 9.00832 16.6453 10.4632 16.3559C11.918 16.0665 13.2544 15.3522 14.3033 14.3033C15.3522 13.2544 16.0665 11.918 16.3559 10.4632C16.6453 9.00832 16.4968 7.50032 15.9291 6.12987C15.3614 4.75943 14.4001 3.58809 13.1668 2.76398C11.9334 1.93987 10.4834 1.5 9 1.5C8.01509 1.5 7.03982 1.69399 6.12987 2.0709C5.21993 2.44781 4.39314 3.00026 3.6967 3.6967C2.29018 5.10322 1.5 7.01088 1.5 9ZM8.25 5.25C8.25 5.05109 8.32902 4.86032 8.46967 4.71967C8.61032 4.57902 8.80109 4.5 9 4.5C9.19891 4.5 9.38968 4.57902 9.53033 4.71967C9.67098 4.86032 9.75 5.05109 9.75 5.25V8.25H11.25C11.4489 8.25 11.6397 8.32902 11.7803 8.46967C11.921 8.61032 12 8.80109 12 9C12 9.19891 11.921 9.38968 11.7803 9.53033C11.6397 9.67098 11.4489 9.75 11.25 9.75H9C8.80109 9.75 8.61032 9.67098 8.46967 9.53033C8.32902 9.38968 8.25 9.19891 8.25 9V5.25Z" fill="#2D76F9"/>
</g>
</svg>
